<svg width="172" height="172" viewBox="0 0 172 172" fill="none" xmlns="http://www.w3.org/2000/svg">
<circle cx="85.7819" cy="85.7819" r="77.7819" stroke="#39E991" stroke-opacity="0.2" stroke-width="16"/>
<path d="M160.913 65.6505C165.165 81.5167 164.284 98.3215 158.397 113.656C152.511 128.991 141.921 142.069 128.145 151.015" stroke="#6B86FF" stroke-width="16" stroke-linecap="round"/>
<path d="M91.2077 163.374C78.1381 164.288 65.0494 161.886 53.1561 156.39C41.2628 150.895 30.9504 142.484 23.1757 131.939C15.401 121.394 10.416 109.055 8.68327 96.069C6.95051 83.0826 8.52615 69.8689 13.264 57.654C18.0018 45.4392 25.7483 34.619 35.7847 26.1975C45.821 17.776 57.822 12.0261 70.674 9.48134C83.526 6.93658 96.8125 7.67942 109.301 11.6409C121.789 15.6024 133.074 22.6542 142.109 32.142" stroke="url(#paint0_linear_3365_3493)" stroke-width="16" stroke-linecap="round"/>
<path d="M116.068 113.489C115.336 113.489 114.6 113.243 113.997 112.739C112.641 111.605 112.47 109.596 113.614 108.253L132.086 86.575L113.615 64.8975C112.471 63.5541 112.642 61.5462 113.999 60.4115C115.355 59.2768 117.382 59.4468 118.527 60.7901L138.748 84.5213C139.759 85.7076 139.759 87.4424 138.748 88.6275L118.526 112.358C117.891 113.104 116.983 113.489 116.068 113.489Z" fill="url(#paint1_linear_3365_3493)"/>
<path d="M56.4367 113.488C55.5231 113.488 54.6155 113.104 53.98 112.358L33.758 88.6282C32.7473 87.4419 32.7473 85.7071 33.758 84.522L53.98 60.7908C55.1243 59.4474 57.1527 59.2775 58.5089 60.411C59.865 61.5445 60.0366 63.5537 58.8923 64.897L40.4182 86.5757L58.8899 108.252C60.0343 109.595 59.8638 111.603 58.5077 112.738C57.9041 113.241 57.1681 113.488 56.4367 113.488Z" fill="url(#paint2_linear_3365_3493)"/>
<path d="M71.253 113.489C70.6708 113.489 70.0814 113.332 69.5513 113.003C68.0472 112.07 67.5904 110.107 68.5324 108.617L98.5245 61.1559C99.4665 59.666 101.45 59.2147 102.954 60.1466C104.458 61.0797 104.915 63.0431 103.973 64.533L73.9808 111.994C73.3713 112.959 72.324 113.489 71.253 113.489Z" fill="url(#paint3_linear_3365_3493)"/>
<defs>
<linearGradient id="paint0_linear_3365_3493" x1="112.27" y1="-6.86429e-06" x2="-3.38092" y2="96.2778" gradientUnits="userSpaceOnUse">
<stop stop-color="#6492F1"/>
<stop offset="1" stop-color="#39E991"/>
</linearGradient>
<linearGradient id="paint1_linear_3365_3493" x1="130.296" y1="59.6602" x2="104.298" y2="70.3754" gradientUnits="userSpaceOnUse">
<stop offset="1" stop-color="#39E991"/>
</linearGradient>
<linearGradient id="paint2_linear_3365_3493" x1="50.4395" y1="59.6606" x2="24.4412" y2="70.376" gradientUnits="userSpaceOnUse">
<stop offset="1" stop-color="#39E991"/>
</linearGradient>
<linearGradient id="paint3_linear_3365_3493" x1="91.8758" y1="59.6616" x2="60.3214" y2="77.4356" gradientUnits="userSpaceOnUse">
<stop offset="1" stop-color="#39E991"/>
</linearGradient>
</defs>
</svg>
